# Blender v2.80 (sub 53) OBJ File: 'gems.blend'
# www.blender.org
mtllib gems.mtl
o EmeraldCut_Cube.002
v -0.287650 0.262787 -0.364753
v 0.322700 0.262787 -0.364752
v 0.322699 0.262787 0.384913
v -0.287650 0.262787 0.384913
v -0.204506 0.262787 -0.429299
v 0.239555 0.262787 -0.429298
v 0.239555 0.262787 0.449459
v -0.204506 0.262787 0.449459
v -0.404494 0.142273 -0.485479
v 0.439544 0.142273 -0.485479
v 0.439543 0.142273 0.505640
v -0.404494 0.142273 0.505639
v -0.289516 0.142273 -0.570814
v 0.324566 0.142273 -0.570814
v 0.324565 0.142273 0.590975
v -0.289516 0.142273 0.590975
v -0.357245 0.214422 -0.438490
v 0.392295 0.214422 -0.438489
v 0.392295 0.214422 0.458650
v -0.357246 0.214422 0.458650
v -0.255140 0.214422 -0.515733
v 0.290190 0.214422 -0.515733
v 0.290189 0.214422 0.535894
v -0.255140 0.214422 0.535894
v 0.017525 -0.296329 -0.158737
v 0.017525 -0.296329 0.178898
v 0.186397 -0.077028 -0.402261
v -0.151348 -0.077028 0.422422
v 0.186397 -0.077028 0.422422
v -0.151348 -0.077028 -0.402261
v -0.214586 -0.077028 0.375488
v 0.249635 -0.077028 0.375488
v 0.249635 -0.077028 -0.355327
v -0.214586 -0.077028 -0.355327
vn 0.0000 1.0000 -0.0000
vn -0.2643 0.9005 -0.3454
vn -0.4444 0.6711 -0.5934
vn 0.2643 0.9005 -0.3454
vn 0.4444 0.6711 -0.5934
vn 0.2643 0.9005 0.3454
vn 0.4444 0.6711 0.5934
vn -0.2643 0.9005 0.3454
vn -0.4444 0.6711 0.5934
vn 0.0000 0.8727 -0.4883
vn 0.0000 0.6068 -0.7948
vn -0.0000 0.8727 0.4883
vn -0.0000 0.6068 0.7948
vn 0.5707 0.8212 0.0000
vn 0.8366 0.5479 0.0000
vn -0.5707 0.8212 -0.0000
vn -0.8366 0.5479 -0.0000
vn 0.3546 -0.8037 -0.4778
vn 0.4230 -0.7045 -0.5699
vn 0.0000 -0.7431 -0.6692
vn 0.0000 -0.6094 -0.7929
vn -0.3546 -0.8037 -0.4778
vn -0.4230 -0.7045 -0.5699
vn -0.7559 -0.6546 -0.0000
vn -0.6868 -0.7269 -0.0000
vn -0.3546 -0.8037 0.4778
vn -0.4230 -0.7045 0.5699
vn -0.0000 -0.7431 0.6692
vn -0.0000 -0.6094 0.7929
vn 0.3546 -0.8037 0.4778
vn 0.4230 -0.7045 0.5699
vn 0.7559 -0.6546 0.0000
vn 0.6868 -0.7269 0.0000
usemtl Emerald
s off
f 1//1 4//1 3//1 2//1
f 1//1 2//1 6//1 5//1
f 3//1 4//1 8//1 7//1
f 17//2 1//2 5//2 21//2
f 21//3 13//3 9//3 17//3
f 2//4 18//4 22//4 6//4
f 18//5 10//5 14//5 22//5
f 7//6 23//6 19//6 3//6
f 23//7 15//7 11//7 19//7
f 4//8 20//8 24//8 8//8
f 20//9 12//9 16//9 24//9
f 6//10 22//10 21//10 5//10
f 22//11 14//11 13//11 21//11
f 8//12 24//12 23//12 7//12
f 24//13 16//13 15//13 23//13
f 3//14 19//14 18//14 2//14
f 19//15 11//15 10//15 18//15
f 1//16 17//16 20//16 4//16
f 17//17 9//17 12//17 20//17
f 33//18 25//18 27//18
f 10//19 33//19 27//19 14//19
f 27//20 25//20 30//20
f 14//21 27//21 30//21 13//21
f 30//22 25//22 34//22
f 13//23 30//23 34//23 9//23
f 9//24 34//24 31//24 12//24
f 34//25 25//25 26//25 31//25
f 31//26 26//26 28//26
f 12//27 31//27 28//27 16//27
f 28//28 26//28 29//28
f 16//29 28//29 29//29 15//29
f 29//30 26//30 32//30
f 15//31 29//31 32//31 11//31
f 11//32 32//32 33//32 10//32
f 32//33 26//33 25//33 33//33
l 1 2
l 2 3
l 3 4
l 1 4
l 1 5
l 2 6
l 3 7
l 4 8
l 5 6
l 7 8
l 10 11
l 9 12
l 9 13
l 10 14
l 11 15
l 12 16
l 13 14
l 15 16
l 1 17
l 9 17
l 2 18
l 10 18
l 3 19
l 11 19
l 4 20
l 12 20
l 5 21
l 13 21
l 6 22
l 14 22
l 7 23
l 15 23
l 8 24
l 16 24
l 17 21
l 18 22
l 19 23
l 20 24
l 21 22
l 23 24
l 18 19
l 17 20
l 25 26
l 14 27
l 25 27
l 16 28
l 26 28
l 15 29
l 26 29
l 13 30
l 25 30
l 12 31
l 26 31
l 11 32
l 26 32
l 10 33
l 25 33
l 9 34
l 25 34
l 27 33
l 27 30
l 30 34
l 31 34
l 28 31
l 28 29
l 29 32
l 32 33
